<svg width="750" height="750" viewBox="0 0 750 750" fill="none" xmlns="http://www.w3.org/2000/svg">
<rect width="750" height="750" rx="10" fill="#FFCADD"/>
<path d="M147.553 113.438V77.4858H158.761V82.0028H153.406V108.906H158.761V113.438H147.553ZM163.196 110L175.256 86.1364V85.9375H161.207V80.9091H181.619V86.0085L169.545 110H163.196ZM187.468 106.023L187.312 107.585C187.189 108.835 186.952 110.08 186.602 111.321C186.261 112.571 185.901 113.703 185.522 114.716C185.153 115.729 184.854 116.525 184.627 117.102H180.707C180.849 116.544 181.043 115.762 181.289 114.759C181.535 113.764 181.767 112.647 181.985 111.406C182.203 110.166 182.34 108.902 182.397 107.614L182.468 106.023H187.468ZM211.46 110.398C209.452 110.398 207.662 110.028 206.09 109.29C204.528 108.551 203.287 107.533 202.369 106.236C201.45 104.938 200.972 103.452 200.934 101.776H206.9C206.966 102.902 207.44 103.816 208.32 104.517C209.201 105.218 210.247 105.568 211.46 105.568C212.425 105.568 213.278 105.355 214.016 104.929C214.764 104.493 215.347 103.892 215.763 103.125C216.19 102.348 216.403 101.458 216.403 100.455C216.403 99.4318 216.185 98.5322 215.749 97.7557C215.323 96.9792 214.731 96.3731 213.974 95.9375C213.216 95.5019 212.35 95.2794 211.374 95.2699C210.522 95.2699 209.693 95.4451 208.888 95.7955C208.093 96.1458 207.473 96.6241 207.028 97.2301L201.559 96.25L202.937 80.9091H220.721V85.9375H208.008L207.255 93.2244H207.425C207.937 92.5047 208.709 91.9081 209.741 91.4347C210.773 90.9612 211.928 90.7244 213.207 90.7244C214.959 90.7244 216.521 91.1364 217.894 91.9602C219.267 92.7841 220.352 93.9157 221.147 95.3551C221.942 96.785 222.335 98.4328 222.326 100.298C222.335 102.259 221.881 104.001 220.962 105.526C220.053 107.041 218.78 108.234 217.141 109.105C215.513 109.967 213.619 110.398 211.46 110.398ZM232.312 106.023L232.156 107.585C232.032 108.835 231.796 110.08 231.445 111.321C231.104 112.571 230.745 113.703 230.366 114.716C229.996 115.729 229.698 116.525 229.471 117.102H225.55C225.692 116.544 225.887 115.762 226.133 114.759C226.379 113.764 226.611 112.647 226.829 111.406C227.047 110.166 227.184 108.902 227.241 107.614L227.312 106.023H232.312ZM258.335 80.9091V110H252.184V86.7472H252.013L245.352 90.9233V85.4688L252.553 80.9091H258.335ZM270.32 106.023L270.163 107.585C270.04 108.835 269.804 110.08 269.453 111.321C269.112 112.571 268.752 113.703 268.374 114.716C268.004 115.729 267.706 116.525 267.479 117.102H263.558C263.7 116.544 263.894 115.762 264.141 114.759C264.387 113.764 264.619 112.647 264.837 111.406C265.054 110.166 265.192 108.902 265.249 107.614L265.32 106.023H270.32ZM294.538 110.398C292.351 110.398 290.405 110.043 288.7 109.332C287.005 108.613 285.675 107.633 284.709 106.392C283.743 105.152 283.26 103.745 283.26 102.173C283.26 100.961 283.535 99.8485 284.084 98.8352C284.643 97.8125 285.4 96.965 286.357 96.2926C287.313 95.6108 288.383 95.1752 289.567 94.9858V94.7869C288.014 94.4744 286.754 93.7216 285.788 92.5284C284.822 91.3258 284.339 89.929 284.339 88.3381C284.339 86.8324 284.78 85.4924 285.661 84.3182C286.541 83.1345 287.749 82.2064 289.283 81.5341C290.826 80.8523 292.578 80.5114 294.538 80.5114C296.499 80.5114 298.246 80.8523 299.78 81.5341C301.323 82.2159 302.536 83.1487 303.416 84.3324C304.297 85.5066 304.742 86.8419 304.751 88.3381C304.742 89.9384 304.25 91.3352 303.274 92.5284C302.299 93.7216 301.049 94.4744 299.524 94.7869V94.9858C300.689 95.1752 301.745 95.6108 302.692 96.2926C303.648 96.965 304.406 97.8125 304.964 98.8352C305.533 99.8485 305.821 100.961 305.831 102.173C305.821 103.745 305.334 105.152 304.368 106.392C303.402 107.633 302.067 108.613 300.362 109.332C298.667 110.043 296.726 110.398 294.538 110.398ZM294.538 105.881C295.514 105.881 296.366 105.705 297.095 105.355C297.824 104.995 298.393 104.503 298.8 103.878C299.216 103.243 299.425 102.514 299.425 101.69C299.425 100.848 299.212 100.104 298.786 99.4602C298.359 98.8068 297.782 98.2955 297.053 97.9261C296.323 97.5473 295.485 97.358 294.538 97.358C293.601 97.358 292.763 97.5473 292.024 97.9261C291.286 98.2955 290.703 98.8068 290.277 99.4602C289.86 100.104 289.652 100.848 289.652 101.69C289.652 102.514 289.856 103.243 290.263 103.878C290.67 104.503 291.243 104.995 291.982 105.355C292.72 105.705 293.572 105.881 294.538 105.881ZM294.538 92.8835C295.353 92.8835 296.077 92.7178 296.712 92.3864C297.346 92.0549 297.843 91.5956 298.203 91.0085C298.563 90.4214 298.743 89.7443 298.743 88.9773C298.743 88.2197 298.563 87.5568 298.203 86.9886C297.843 86.411 297.351 85.9612 296.726 85.6392C296.101 85.3078 295.372 85.142 294.538 85.142C293.714 85.142 292.985 85.3078 292.351 85.6392C291.716 85.9612 291.219 86.411 290.859 86.9886C290.509 87.5568 290.334 88.2197 290.334 88.9773C290.334 89.7443 290.514 90.4214 290.874 91.0085C291.233 91.5956 291.731 92.0549 292.365 92.3864C293 92.7178 293.724 92.8835 294.538 92.8835ZM315.945 106.023L315.788 107.585C315.665 108.835 315.429 110.08 315.078 111.321C314.737 112.571 314.377 113.703 313.999 114.716C313.629 115.729 313.331 116.525 313.104 117.102H309.183C309.325 116.544 309.519 115.762 309.766 114.759C310.012 113.764 310.244 112.647 310.462 111.406C310.679 110.166 310.817 108.902 310.874 107.614L310.945 106.023H315.945ZM340.064 110.398C337.943 110.398 336.054 110.033 334.396 109.304C332.749 108.565 331.446 107.552 330.49 106.264C329.543 104.967 329.055 103.471 329.027 101.776H335.22C335.258 102.486 335.49 103.111 335.916 103.651C336.352 104.181 336.929 104.593 337.649 104.886C338.369 105.18 339.179 105.327 340.078 105.327C341.016 105.327 341.844 105.161 342.564 104.83C343.284 104.498 343.847 104.039 344.254 103.452C344.661 102.865 344.865 102.187 344.865 101.42C344.865 100.644 344.647 99.9574 344.212 99.3608C343.786 98.7547 343.17 98.2812 342.365 97.9403C341.57 97.5994 340.623 97.429 339.524 97.429H336.811V92.9119H339.524C340.452 92.9119 341.271 92.7509 341.982 92.429C342.701 92.107 343.26 91.6619 343.658 91.0938C344.055 90.5161 344.254 89.8438 344.254 89.0767C344.254 88.3475 344.079 87.7083 343.729 87.1591C343.388 86.6004 342.905 86.1648 342.28 85.8523C341.664 85.5398 340.945 85.3835 340.121 85.3835C339.287 85.3835 338.525 85.535 337.834 85.8381C337.143 86.1316 336.589 86.553 336.172 87.1023C335.755 87.6515 335.533 88.2955 335.504 89.0341H329.609C329.638 87.358 330.116 85.8807 331.044 84.6023C331.972 83.3239 333.222 82.3248 334.794 81.6051C336.375 80.8759 338.161 80.5114 340.149 80.5114C342.157 80.5114 343.913 80.8759 345.419 81.6051C346.925 82.3343 348.094 83.3191 348.928 84.5597C349.77 85.7907 350.187 87.1733 350.178 88.7074C350.187 90.3362 349.68 91.6951 348.658 92.7841C347.644 93.8731 346.323 94.5644 344.695 94.858V95.0852C346.835 95.3598 348.464 96.1032 349.581 97.3153C350.708 98.518 351.267 100.024 351.257 101.832C351.267 103.49 350.788 104.962 349.822 106.25C348.866 107.538 347.545 108.551 345.859 109.29C344.174 110.028 342.242 110.398 340.064 110.398ZM361.491 106.023L361.335 107.585C361.212 108.835 360.975 110.08 360.625 111.321C360.284 112.571 359.924 113.703 359.545 114.716C359.176 115.729 358.878 116.525 358.651 117.102H354.73C354.872 116.544 355.066 115.762 355.312 114.759C355.559 113.764 355.791 112.647 356.009 111.406C356.226 110.166 356.364 108.902 356.42 107.614L356.491 106.023H361.491ZM386.023 110.398C384.527 110.388 383.082 110.137 381.69 109.645C380.308 109.152 379.067 108.352 377.969 107.244C376.87 106.136 375.999 104.669 375.355 102.841C374.721 101.013 374.403 98.7689 374.403 96.108C374.413 93.6648 374.692 91.482 375.241 89.5597C375.8 87.6278 376.596 85.9896 377.628 84.6449C378.67 83.3002 379.915 82.2775 381.364 81.5767C382.813 80.8665 384.437 80.5114 386.236 80.5114C388.177 80.5114 389.891 80.8902 391.378 81.6477C392.865 82.3958 394.058 83.4138 394.957 84.7017C395.866 85.9896 396.416 87.4337 396.605 89.0341H390.54C390.303 88.0208 389.806 87.2254 389.048 86.6477C388.291 86.0701 387.353 85.7812 386.236 85.7812C384.342 85.7812 382.902 86.6051 381.918 88.2528C380.942 89.9006 380.445 92.1402 380.426 94.9716H380.625C381.061 94.1098 381.648 93.3759 382.386 92.7699C383.134 92.1544 383.982 91.6856 384.929 91.3636C385.885 91.0322 386.894 90.8665 387.955 90.8665C389.678 90.8665 391.212 91.2737 392.557 92.0881C393.902 92.893 394.962 94.0009 395.739 95.4119C396.515 96.8229 396.903 98.4375 396.903 100.256C396.903 102.225 396.444 103.977 395.526 105.511C394.616 107.045 393.343 108.248 391.705 109.119C390.076 109.981 388.182 110.407 386.023 110.398ZM385.994 105.568C386.941 105.568 387.789 105.341 388.537 104.886C389.285 104.432 389.872 103.816 390.298 103.04C390.724 102.263 390.938 101.392 390.938 100.426C390.938 99.4602 390.724 98.5937 390.298 97.8267C389.882 97.0597 389.304 96.4489 388.565 95.9943C387.827 95.5398 386.984 95.3125 386.037 95.3125C385.327 95.3125 384.669 95.4451 384.062 95.7102C383.466 95.9754 382.94 96.3447 382.486 96.8182C382.041 97.2917 381.69 97.8409 381.435 98.4659C381.179 99.0814 381.051 99.7396 381.051 100.44C381.051 101.378 381.264 102.235 381.69 103.011C382.126 103.788 382.713 104.408 383.452 104.872C384.2 105.336 385.047 105.568 385.994 105.568ZM406.687 106.023L406.531 107.585C406.407 108.835 406.171 110.08 405.82 111.321C405.479 112.571 405.12 113.703 404.741 114.716C404.371 115.729 404.073 116.525 403.846 117.102H399.925C400.067 116.544 400.262 115.762 400.508 114.759C400.754 113.764 400.986 112.647 401.204 111.406C401.422 110.166 401.559 108.902 401.616 107.614L401.687 106.023H406.687ZM431.46 110.639C429.016 110.63 426.914 110.028 425.153 108.835C423.401 107.642 422.051 105.914 421.104 103.651C420.167 101.387 419.703 98.6648 419.712 95.483C419.712 92.3106 420.181 89.607 421.119 87.3722C422.066 85.1373 423.415 83.4375 425.167 82.2727C426.928 81.0985 429.026 80.5114 431.46 80.5114C433.893 80.5114 435.986 81.0985 437.738 82.2727C439.499 83.447 440.853 85.1515 441.8 87.3864C442.747 89.6117 443.216 92.3106 443.207 95.483C443.207 98.6742 442.733 101.402 441.786 103.665C440.849 105.928 439.504 107.656 437.752 108.849C436 110.043 433.903 110.639 431.46 110.639ZM431.46 105.54C433.126 105.54 434.457 104.702 435.451 103.026C436.445 101.349 436.938 98.8352 436.928 95.483C436.928 93.2765 436.701 91.4394 436.246 89.9716C435.801 88.5038 435.167 87.4006 434.343 86.6619C433.529 85.9233 432.567 85.554 431.46 85.554C429.802 85.554 428.477 86.3826 427.482 88.0398C426.488 89.697 425.986 92.178 425.977 95.483C425.977 97.7178 426.199 99.5833 426.644 101.08C427.099 102.566 427.738 103.684 428.562 104.432C429.386 105.17 430.352 105.54 431.46 105.54ZM453.054 106.023L452.898 107.585C452.775 108.835 452.538 110.08 452.188 111.321C451.847 112.571 451.487 113.703 451.108 114.716C450.739 115.729 450.44 116.525 450.213 117.102H446.293C446.435 116.544 446.629 115.762 446.875 114.759C447.121 113.764 447.353 112.647 447.571 111.406C447.789 110.166 447.926 108.902 447.983 107.614L448.054 106.023H453.054ZM476.946 80.5114C478.442 80.5114 479.882 80.7623 481.264 81.2642C482.656 81.7661 483.897 82.5663 484.986 83.6648C486.084 84.7633 486.951 86.2216 487.585 88.0398C488.229 89.8485 488.556 92.0691 488.565 94.7017C488.565 97.1733 488.286 99.3797 487.727 101.321C487.178 103.253 486.387 104.896 485.355 106.25C484.323 107.604 483.078 108.636 481.619 109.347C480.161 110.047 478.532 110.398 476.733 110.398C474.792 110.398 473.078 110.024 471.591 109.276C470.104 108.518 468.906 107.491 467.997 106.193C467.098 104.886 466.553 103.419 466.364 101.79H472.429C472.666 102.85 473.163 103.674 473.92 104.261C474.678 104.839 475.616 105.128 476.733 105.128C478.627 105.128 480.066 104.304 481.051 102.656C482.036 100.999 482.533 98.7311 482.543 95.8523H482.344C481.908 96.7045 481.321 97.4384 480.582 98.054C479.844 98.66 478.996 99.1288 478.04 99.4602C477.093 99.7917 476.084 99.9574 475.014 99.9574C473.3 99.9574 471.771 99.5549 470.426 98.75C469.081 97.9451 468.021 96.8371 467.244 95.4261C466.468 94.0152 466.08 92.4053 466.08 90.5966C466.07 88.6458 466.52 86.9081 467.429 85.3835C468.338 83.8589 469.607 82.6657 471.236 81.804C472.874 80.9328 474.777 80.5019 476.946 80.5114ZM476.989 85.3409C476.032 85.3409 475.18 85.5682 474.432 86.0227C473.693 86.4773 473.106 87.0881 472.67 87.8551C472.244 88.6222 472.036 89.4792 472.045 90.4261C472.045 91.3826 472.254 92.2443 472.67 93.0114C473.097 93.7689 473.674 94.375 474.403 94.8295C475.142 95.2746 475.985 95.4972 476.932 95.4972C477.642 95.4972 478.3 95.3646 478.906 95.0994C479.512 94.8343 480.038 94.4697 480.483 94.0057C480.938 93.5322 481.293 92.9877 481.548 92.3722C481.804 91.7566 481.932 91.1032 481.932 90.4119C481.922 89.4934 481.705 88.6506 481.278 87.8835C480.852 87.1165 480.265 86.5009 479.517 86.0369C478.769 85.5729 477.926 85.3409 476.989 85.3409ZM498.288 106.023L498.132 107.585C498.009 108.835 497.772 110.08 497.422 111.321C497.081 112.571 496.721 113.703 496.342 114.716C495.973 115.729 495.675 116.525 495.447 117.102H491.527C491.669 116.544 491.863 115.762 492.109 114.759C492.356 113.764 492.588 112.647 492.805 111.406C493.023 110.166 493.161 108.902 493.217 107.614L493.288 106.023H498.288ZM511.214 104.886V100.043L523.359 80.9091H527.536V87.6136H525.064L517.408 99.7301V99.9574H534.666V104.886H511.214ZM525.178 110V103.409L525.291 101.264V80.9091H531.058V110H525.178ZM544.851 106.023L544.695 107.585C544.571 108.835 544.335 110.08 543.984 111.321C543.643 112.571 543.284 113.703 542.905 114.716C542.536 115.729 542.237 116.525 542.01 117.102H538.089C538.232 116.544 538.426 115.762 538.672 114.759C538.918 113.764 539.15 112.647 539.368 111.406C539.586 110.166 539.723 108.902 539.78 107.614L539.851 106.023H544.851ZM558.217 110V105.568L568.572 95.9801C569.453 95.1278 570.192 94.3608 570.788 93.679C571.394 92.9972 571.854 92.3295 572.166 91.6761C572.479 91.0133 572.635 90.2983 572.635 89.5312C572.635 88.679 572.441 87.9451 572.053 87.3295C571.664 86.7045 571.134 86.2263 570.462 85.8949C569.789 85.554 569.027 85.3835 568.175 85.3835C567.285 85.3835 566.508 85.5634 565.845 85.9233C565.182 86.2831 564.671 86.7992 564.311 87.4716C563.951 88.1439 563.771 88.9441 563.771 89.8722H557.933C557.933 87.9687 558.364 86.3163 559.226 84.9148C560.088 83.5133 561.295 82.429 562.848 81.6619C564.401 80.8949 566.191 80.5114 568.217 80.5114C570.301 80.5114 572.114 80.8807 573.658 81.6193C575.211 82.3485 576.418 83.3617 577.28 84.6591C578.142 85.9564 578.572 87.4432 578.572 89.1193C578.572 90.2178 578.355 91.3021 577.919 92.3722C577.493 93.4422 576.731 94.6307 575.632 95.9375C574.534 97.2348 572.985 98.7926 570.987 100.611L566.74 104.773V104.972H578.956V110H558.217ZM593.185 77.4858V113.438H581.978V108.906H587.333V82.0028H581.978V77.4858H593.185Z" fill="#575757"/>
<path d="M280.541 188V170.545H285.234V173.591H285.416C285.734 172.508 286.268 171.689 287.018 171.136C287.768 170.576 288.632 170.295 289.609 170.295C289.852 170.295 290.113 170.311 290.393 170.341C290.674 170.371 290.92 170.413 291.132 170.466V174.761C290.905 174.693 290.59 174.633 290.189 174.58C289.787 174.527 289.42 174.5 289.087 174.5C288.375 174.5 287.738 174.655 287.178 174.966C286.625 175.269 286.185 175.693 285.859 176.239C285.541 176.784 285.382 177.413 285.382 178.125V188H280.541ZM300.709 188.341C298.944 188.341 297.417 187.966 296.129 187.216C294.849 186.458 293.86 185.405 293.163 184.057C292.466 182.701 292.118 181.129 292.118 179.341C292.118 177.538 292.466 175.962 293.163 174.614C293.86 173.258 294.849 172.205 296.129 171.455C297.417 170.697 298.944 170.318 300.709 170.318C302.474 170.318 303.997 170.697 305.277 171.455C306.565 172.205 307.557 173.258 308.254 174.614C308.951 175.962 309.3 177.538 309.3 179.341C309.3 181.129 308.951 182.701 308.254 184.057C307.557 185.405 306.565 186.458 305.277 187.216C303.997 187.966 302.474 188.341 300.709 188.341ZM300.732 184.591C301.535 184.591 302.205 184.364 302.743 183.909C303.281 183.447 303.686 182.818 303.959 182.023C304.239 181.227 304.379 180.322 304.379 179.307C304.379 178.292 304.239 177.386 303.959 176.591C303.686 175.795 303.281 175.167 302.743 174.705C302.205 174.242 301.535 174.011 300.732 174.011C299.921 174.011 299.239 174.242 298.686 174.705C298.141 175.167 297.728 175.795 297.447 176.591C297.175 177.386 297.038 178.292 297.038 179.307C297.038 180.322 297.175 181.227 297.447 182.023C297.728 182.818 298.141 183.447 298.686 183.909C299.239 184.364 299.921 184.591 300.732 184.591ZM320.334 188.341C318.569 188.341 317.042 187.966 315.754 187.216C314.474 186.458 313.485 185.405 312.788 184.057C312.091 182.701 311.743 181.129 311.743 179.341C311.743 177.538 312.091 175.962 312.788 174.614C313.485 173.258 314.474 172.205 315.754 171.455C317.042 170.697 318.569 170.318 320.334 170.318C322.099 170.318 323.622 170.697 324.902 171.455C326.19 172.205 327.182 173.258 327.879 174.614C328.576 175.962 328.925 177.538 328.925 179.341C328.925 181.129 328.576 182.701 327.879 184.057C327.182 185.405 326.19 186.458 324.902 187.216C323.622 187.966 322.099 188.341 320.334 188.341ZM320.357 184.591C321.16 184.591 321.83 184.364 322.368 183.909C322.906 183.447 323.311 182.818 323.584 182.023C323.864 181.227 324.004 180.322 324.004 179.307C324.004 178.292 323.864 177.386 323.584 176.591C323.311 175.795 322.906 175.167 322.368 174.705C321.83 174.242 321.16 174.011 320.357 174.011C319.546 174.011 318.864 174.242 318.311 174.705C317.766 175.167 317.353 175.795 317.072 176.591C316.8 177.386 316.663 178.292 316.663 179.307C316.663 180.322 316.8 181.227 317.072 182.023C317.353 182.818 317.766 183.447 318.311 183.909C318.864 184.364 319.546 184.591 320.357 184.591ZM341.357 170.545V174.182H330.845V170.545H341.357ZM333.232 166.364H338.072V182.636C338.072 183.083 338.141 183.432 338.277 183.682C338.413 183.924 338.603 184.095 338.845 184.193C339.095 184.292 339.383 184.341 339.709 184.341C339.936 184.341 340.163 184.322 340.391 184.284C340.618 184.239 340.792 184.205 340.913 184.182L341.675 187.784C341.432 187.86 341.091 187.947 340.652 188.045C340.213 188.152 339.679 188.216 339.05 188.239C337.883 188.284 336.86 188.129 335.982 187.773C335.11 187.417 334.432 186.864 333.947 186.114C333.463 185.364 333.224 184.417 333.232 183.273V166.364ZM353.007 174.614V170.568H368.7V174.614H353.007ZM353.007 182.159V178.114H368.7V182.159H353.007ZM381.947 188L391.595 168.909V168.75H380.357V164.727H396.686V168.807L387.027 188H381.947ZM407.51 188V170.545H412.351V188H407.51ZM409.942 168.295C409.222 168.295 408.605 168.057 408.089 167.58C407.582 167.095 407.328 166.515 407.328 165.841C407.328 165.174 407.582 164.602 408.089 164.125C408.605 163.64 409.222 163.398 409.942 163.398C410.661 163.398 411.275 163.64 411.783 164.125C412.298 164.602 412.555 165.174 412.555 165.841C412.555 166.515 412.298 167.095 411.783 167.58C411.275 168.057 410.661 168.295 409.942 168.295ZM424.115 188.341C422.327 188.341 420.789 187.962 419.501 187.205C418.221 186.439 417.236 185.379 416.547 184.023C415.865 182.667 415.524 181.106 415.524 179.341C415.524 177.553 415.869 175.985 416.558 174.636C417.255 173.28 418.244 172.223 419.524 171.466C420.804 170.701 422.327 170.318 424.092 170.318C425.615 170.318 426.948 170.595 428.092 171.148C429.236 171.701 430.142 172.477 430.808 173.477C431.475 174.477 431.842 175.652 431.911 177H427.342C427.214 176.129 426.873 175.428 426.32 174.898C425.774 174.36 425.058 174.091 424.172 174.091C423.422 174.091 422.767 174.295 422.206 174.705C421.653 175.106 421.221 175.693 420.911 176.466C420.6 177.239 420.445 178.174 420.445 179.273C420.445 180.386 420.596 181.333 420.899 182.114C421.21 182.894 421.645 183.489 422.206 183.898C422.767 184.307 423.422 184.511 424.172 184.511C424.725 184.511 425.221 184.398 425.661 184.17C426.107 183.943 426.475 183.614 426.763 183.182C427.058 182.742 427.251 182.216 427.342 181.602H431.911C431.835 182.936 431.471 184.11 430.82 185.125C430.176 186.133 429.286 186.92 428.149 187.489C427.013 188.057 425.668 188.341 424.115 188.341ZM422.979 187.909H425.206L425.024 188.898C425.804 189.019 426.441 189.311 426.933 189.773C427.433 190.235 427.687 190.864 427.695 191.659C427.702 192.788 427.179 193.686 426.126 194.352C425.073 195.027 423.596 195.364 421.695 195.364L421.649 193.205C422.604 193.205 423.35 193.087 423.888 192.852C424.433 192.625 424.717 192.269 424.74 191.784C424.755 191.322 424.577 190.97 424.206 190.727C423.835 190.485 423.255 190.314 422.467 190.216L422.979 187.909ZM435.01 188V170.545H439.851V188H435.01ZM437.442 168.295C436.722 168.295 436.105 168.057 435.589 167.58C435.082 167.095 434.828 166.515 434.828 165.841C434.828 165.174 435.082 164.602 435.589 164.125C436.105 163.64 436.722 163.398 437.442 163.398C438.161 163.398 438.775 163.64 439.283 164.125C439.798 164.602 440.055 165.174 440.055 165.841C440.055 166.515 439.798 167.095 439.283 167.58C438.775 168.057 438.161 168.295 437.442 168.295ZM448.57 177.909V188H443.729V170.545H448.342V173.625H448.547C448.933 172.61 449.581 171.807 450.49 171.216C451.399 170.617 452.501 170.318 453.797 170.318C455.009 170.318 456.066 170.583 456.967 171.114C457.869 171.644 458.57 172.402 459.07 173.386C459.57 174.364 459.82 175.53 459.82 176.886V188H454.979V177.75C454.986 176.682 454.714 175.848 454.161 175.25C453.607 174.644 452.846 174.341 451.876 174.341C451.225 174.341 450.649 174.481 450.149 174.761C449.657 175.042 449.27 175.451 448.99 175.989C448.717 176.519 448.577 177.159 448.57 177.909ZM468.896 184.818L468.771 186.068C468.673 187.068 468.483 188.064 468.203 189.057C467.93 190.057 467.643 190.962 467.339 191.773C467.044 192.583 466.805 193.22 466.624 193.682H463.487C463.601 193.235 463.756 192.61 463.953 191.807C464.15 191.011 464.336 190.117 464.51 189.125C464.684 188.133 464.794 187.121 464.839 186.091L464.896 184.818H468.896ZM466.874 176.068C466.124 176.068 465.48 175.803 464.942 175.273C464.411 174.742 464.146 174.098 464.146 173.341C464.146 172.598 464.411 171.966 464.942 171.443C465.48 170.913 466.124 170.648 466.874 170.648C467.601 170.648 468.237 170.913 468.783 171.443C469.328 171.966 469.601 172.598 469.601 173.341C469.601 173.848 469.472 174.311 469.214 174.727C468.964 175.136 468.635 175.462 468.226 175.705C467.817 175.947 467.366 176.068 466.874 176.068Z" fill="#E23E3E"/>
<path d="M376.197 264L385.845 244.909V244.75H374.607V240.727H390.936V244.807L381.277 264H376.197ZM327.964 381.318C326.358 381.318 324.927 381.023 323.669 380.432C322.419 379.841 321.427 379.027 320.692 377.989C319.957 376.951 319.574 375.761 319.544 374.42H324.317C324.37 375.322 324.749 376.053 325.453 376.614C326.158 377.174 326.995 377.455 327.964 377.455C328.737 377.455 329.419 377.284 330.01 376.943C330.608 376.595 331.074 376.114 331.408 375.5C331.749 374.879 331.919 374.167 331.919 373.364C331.919 372.545 331.745 371.826 331.396 371.205C331.055 370.583 330.582 370.098 329.976 369.75C329.37 369.402 328.677 369.223 327.896 369.216C327.214 369.216 326.552 369.356 325.908 369.636C325.271 369.917 324.775 370.299 324.419 370.784L320.044 370L321.146 357.727H335.374V361.75H325.203L324.601 367.58H324.737C325.146 367.004 325.764 366.527 326.589 366.148C327.415 365.769 328.339 365.58 329.362 365.58C330.764 365.58 332.014 365.909 333.112 366.568C334.211 367.227 335.078 368.133 335.714 369.284C336.351 370.428 336.665 371.746 336.658 373.239C336.665 374.807 336.302 376.201 335.567 377.42C334.839 378.633 333.821 379.587 332.51 380.284C331.207 380.973 329.692 381.318 327.964 381.318ZM422.834 381.318C421.084 381.318 419.527 381.034 418.163 380.466C416.807 379.89 415.743 379.106 414.97 378.114C414.197 377.121 413.811 375.996 413.811 374.739C413.811 373.769 414.031 372.879 414.47 372.068C414.917 371.25 415.523 370.572 416.288 370.034C417.054 369.489 417.91 369.14 418.857 368.989V368.83C417.614 368.58 416.607 367.977 415.834 367.023C415.061 366.061 414.675 364.943 414.675 363.67C414.675 362.466 415.027 361.394 415.732 360.455C416.436 359.508 417.402 358.765 418.629 358.227C419.864 357.682 421.266 357.409 422.834 357.409C424.402 357.409 425.8 357.682 427.027 358.227C428.262 358.773 429.232 359.519 429.936 360.466C430.641 361.405 430.997 362.473 431.004 363.67C430.997 364.951 430.603 366.068 429.822 367.023C429.042 367.977 428.042 368.58 426.822 368.83V368.989C427.754 369.14 428.599 369.489 429.357 370.034C430.122 370.572 430.728 371.25 431.175 372.068C431.629 372.879 431.86 373.769 431.868 374.739C431.86 375.996 431.47 377.121 430.697 378.114C429.925 379.106 428.857 379.89 427.493 380.466C426.137 381.034 424.584 381.318 422.834 381.318ZM422.834 377.705C423.614 377.705 424.296 377.564 424.879 377.284C425.463 376.996 425.917 376.602 426.243 376.102C426.576 375.595 426.743 375.011 426.743 374.352C426.743 373.678 426.572 373.083 426.232 372.568C425.891 372.045 425.429 371.636 424.845 371.341C424.262 371.038 423.591 370.886 422.834 370.886C422.084 370.886 421.413 371.038 420.822 371.341C420.232 371.636 419.766 372.045 419.425 372.568C419.091 373.083 418.925 373.678 418.925 374.352C418.925 375.011 419.088 375.595 419.413 376.102C419.739 376.602 420.197 376.996 420.788 377.284C421.379 377.564 422.061 377.705 422.834 377.705ZM422.834 367.307C423.485 367.307 424.065 367.174 424.572 366.909C425.08 366.644 425.478 366.277 425.766 365.807C426.054 365.337 426.197 364.795 426.197 364.182C426.197 363.576 426.054 363.045 425.766 362.591C425.478 362.129 425.084 361.769 424.584 361.511C424.084 361.246 423.5 361.114 422.834 361.114C422.175 361.114 421.591 361.246 421.084 361.511C420.576 361.769 420.179 362.129 419.891 362.591C419.61 363.045 419.47 363.576 419.47 364.182C419.47 364.795 419.614 365.337 419.902 365.807C420.19 366.277 420.588 366.644 421.095 366.909C421.603 367.174 422.182 367.307 422.834 367.307ZM284.496 474.727V498H279.575V479.398H279.439L274.109 482.739V478.375L279.871 474.727H284.496ZM373.021 498.318C371.824 498.311 370.669 498.11 369.555 497.716C368.449 497.322 367.457 496.682 366.578 495.795C365.699 494.909 365.002 493.735 364.487 492.273C363.98 490.811 363.726 489.015 363.726 486.886C363.733 484.932 363.957 483.186 364.396 481.648C364.843 480.102 365.48 478.792 366.305 477.716C367.139 476.64 368.135 475.822 369.294 475.261C370.453 474.693 371.752 474.409 373.192 474.409C374.745 474.409 376.116 474.712 377.305 475.318C378.495 475.917 379.449 476.731 380.169 477.761C380.896 478.792 381.336 479.947 381.487 481.227H376.635C376.446 480.417 376.048 479.78 375.442 479.318C374.836 478.856 374.086 478.625 373.192 478.625C371.677 478.625 370.525 479.284 369.737 480.602C368.957 481.92 368.559 483.712 368.544 485.977H368.703C369.052 485.288 369.521 484.701 370.112 484.216C370.711 483.723 371.389 483.348 372.146 483.091C372.911 482.826 373.718 482.693 374.567 482.693C375.946 482.693 377.173 483.019 378.249 483.67C379.324 484.314 380.173 485.201 380.794 486.33C381.415 487.458 381.726 488.75 381.726 490.205C381.726 491.78 381.358 493.182 380.624 494.409C379.896 495.636 378.877 496.598 377.567 497.295C376.264 497.985 374.749 498.326 373.021 498.318ZM372.999 494.455C373.756 494.455 374.434 494.273 375.033 493.909C375.631 493.545 376.101 493.053 376.442 492.432C376.783 491.811 376.953 491.114 376.953 490.341C376.953 489.568 376.783 488.875 376.442 488.261C376.108 487.648 375.646 487.159 375.055 486.795C374.464 486.432 373.79 486.25 373.033 486.25C372.464 486.25 371.938 486.356 371.453 486.568C370.976 486.78 370.555 487.076 370.192 487.455C369.836 487.833 369.555 488.273 369.351 488.773C369.146 489.265 369.044 489.792 369.044 490.352C369.044 491.102 369.214 491.788 369.555 492.409C369.904 493.03 370.374 493.527 370.964 493.898C371.563 494.269 372.241 494.455 372.999 494.455ZM467.697 474.409C468.894 474.409 470.046 474.61 471.152 475.011C472.266 475.413 473.258 476.053 474.129 476.932C475.008 477.811 475.701 478.977 476.209 480.432C476.724 481.879 476.985 483.655 476.993 485.761C476.993 487.739 476.769 489.504 476.322 491.057C475.883 492.602 475.25 493.917 474.425 495C473.599 496.083 472.603 496.909 471.436 497.477C470.269 498.038 468.966 498.318 467.527 498.318C465.974 498.318 464.603 498.019 463.413 497.42C462.224 496.814 461.266 495.992 460.538 494.955C459.819 493.909 459.383 492.735 459.232 491.432H464.084C464.273 492.28 464.671 492.939 465.277 493.409C465.883 493.871 466.633 494.102 467.527 494.102C469.042 494.102 470.194 493.443 470.982 492.125C471.769 490.799 472.167 488.985 472.175 486.682H472.016C471.667 487.364 471.197 487.951 470.607 488.443C470.016 488.928 469.338 489.303 468.572 489.568C467.815 489.833 467.008 489.966 466.152 489.966C464.781 489.966 463.557 489.644 462.482 489C461.406 488.356 460.557 487.47 459.936 486.341C459.315 485.212 459.004 483.924 459.004 482.477C458.997 480.917 459.357 479.527 460.084 478.307C460.811 477.087 461.826 476.133 463.129 475.443C464.44 474.746 465.963 474.402 467.697 474.409ZM467.732 478.273C466.966 478.273 466.285 478.455 465.686 478.818C465.095 479.182 464.625 479.67 464.277 480.284C463.936 480.898 463.769 481.583 463.777 482.341C463.777 483.106 463.944 483.795 464.277 484.409C464.618 485.015 465.08 485.5 465.663 485.864C466.254 486.22 466.929 486.398 467.686 486.398C468.254 486.398 468.781 486.292 469.266 486.08C469.75 485.867 470.171 485.576 470.527 485.205C470.891 484.826 471.175 484.39 471.379 483.898C471.584 483.405 471.686 482.883 471.686 482.33C471.679 481.595 471.504 480.92 471.163 480.307C470.822 479.693 470.353 479.201 469.754 478.83C469.156 478.458 468.482 478.273 467.732 478.273ZM234.277 615.511C232.322 615.504 230.641 615.023 229.232 614.068C227.83 613.114 226.75 611.731 225.993 609.92C225.243 608.11 224.872 605.932 224.879 603.386C224.879 600.848 225.254 598.686 226.004 596.898C226.762 595.11 227.841 593.75 229.243 592.818C230.652 591.879 232.33 591.409 234.277 591.409C236.224 591.409 237.898 591.879 239.3 592.818C240.709 593.758 241.792 595.121 242.55 596.909C243.307 598.689 243.682 600.848 243.675 603.386C243.675 605.939 243.296 608.121 242.538 609.932C241.788 611.742 240.713 613.125 239.311 614.08C237.91 615.034 236.232 615.511 234.277 615.511ZM234.277 611.432C235.61 611.432 236.675 610.761 237.47 609.42C238.266 608.08 238.66 606.068 238.652 603.386C238.652 601.621 238.47 600.152 238.107 598.977C237.75 597.803 237.243 596.92 236.584 596.33C235.932 595.739 235.163 595.443 234.277 595.443C232.951 595.443 231.891 596.106 231.095 597.432C230.3 598.758 229.898 600.742 229.891 603.386C229.891 605.174 230.069 606.667 230.425 607.864C230.788 609.053 231.3 609.947 231.959 610.545C232.618 611.136 233.391 611.432 234.277 611.432ZM329.848 615.318C328.151 615.318 326.64 615.027 325.314 614.443C323.996 613.852 322.954 613.042 322.189 612.011C321.431 610.973 321.041 609.777 321.018 608.42H325.973C326.003 608.989 326.189 609.489 326.53 609.92C326.878 610.345 327.34 610.674 327.916 610.909C328.492 611.144 329.14 611.261 329.859 611.261C330.609 611.261 331.272 611.129 331.848 610.864C332.424 610.598 332.875 610.231 333.2 609.761C333.526 609.292 333.689 608.75 333.689 608.136C333.689 607.515 333.515 606.966 333.166 606.489C332.825 606.004 332.333 605.625 331.689 605.352C331.053 605.08 330.295 604.943 329.416 604.943H327.246V601.33H329.416C330.159 601.33 330.814 601.201 331.382 600.943C331.958 600.686 332.405 600.33 332.723 599.875C333.041 599.413 333.2 598.875 333.2 598.261C333.2 597.678 333.06 597.167 332.78 596.727C332.507 596.28 332.121 595.932 331.621 595.682C331.128 595.432 330.553 595.307 329.893 595.307C329.227 595.307 328.617 595.428 328.064 595.67C327.511 595.905 327.068 596.242 326.734 596.682C326.401 597.121 326.223 597.636 326.2 598.227H321.484C321.507 596.886 321.89 595.705 322.632 594.682C323.375 593.659 324.375 592.86 325.632 592.284C326.897 591.701 328.325 591.409 329.916 591.409C331.522 591.409 332.928 591.701 334.132 592.284C335.337 592.867 336.272 593.655 336.939 594.648C337.613 595.633 337.946 596.739 337.939 597.966C337.946 599.269 337.541 600.356 336.723 601.227C335.912 602.098 334.856 602.652 333.553 602.886V603.068C335.265 603.288 336.568 603.883 337.462 604.852C338.363 605.814 338.81 607.019 338.803 608.466C338.81 609.792 338.428 610.97 337.655 612C336.89 613.03 335.833 613.841 334.484 614.432C333.136 615.023 331.59 615.318 329.848 615.318ZM273.933 732V728.455L282.217 720.784C282.922 720.102 283.513 719.489 283.99 718.943C284.475 718.398 284.842 717.864 285.092 717.341C285.342 716.811 285.467 716.239 285.467 715.625C285.467 714.943 285.312 714.356 285.001 713.864C284.691 713.364 284.267 712.981 283.729 712.716C283.191 712.443 282.581 712.307 281.899 712.307C281.187 712.307 280.566 712.451 280.036 712.739C279.505 713.027 279.096 713.439 278.808 713.977C278.52 714.515 278.376 715.155 278.376 715.898H273.706C273.706 714.375 274.051 713.053 274.74 711.932C275.429 710.811 276.395 709.943 277.638 709.33C278.88 708.716 280.312 708.409 281.933 708.409C283.6 708.409 285.051 708.705 286.286 709.295C287.528 709.879 288.494 710.689 289.183 711.727C289.873 712.765 290.217 713.955 290.217 715.295C290.217 716.174 290.043 717.042 289.695 717.898C289.354 718.754 288.744 719.705 287.865 720.75C286.986 721.788 285.748 723.034 284.149 724.489L280.751 727.818V727.977H290.524V732H273.933ZM367.8 727.909V724.034L377.516 708.727H380.857V714.091H378.879L372.754 723.784V723.966H386.561V727.909H367.8ZM378.97 732V726.727L379.061 725.011V708.727H383.675V732H378.97Z" fill="black"/>
<path d="M522.964 615.295C522.214 615.295 521.571 615.03 521.033 614.5C520.502 613.962 520.237 613.318 520.237 612.568C520.237 611.826 520.502 611.189 521.033 610.659C521.571 610.129 522.214 609.864 522.964 609.864C523.692 609.864 524.328 610.129 524.874 610.659C525.419 611.189 525.692 611.826 525.692 612.568C525.692 613.068 525.563 613.527 525.305 613.943C525.055 614.352 524.726 614.682 524.317 614.932C523.908 615.174 523.457 615.295 522.964 615.295ZM474.183 732.295C473.433 732.295 472.789 732.03 472.251 731.5C471.721 730.962 471.456 730.318 471.456 729.568C471.456 728.826 471.721 728.189 472.251 727.659C472.789 727.129 473.433 726.864 474.183 726.864C474.911 726.864 475.547 727.129 476.092 727.659C476.638 728.189 476.911 728.826 476.911 729.568C476.911 730.068 476.782 730.527 476.524 730.943C476.274 731.352 475.945 731.682 475.536 731.932C475.126 732.174 474.676 732.295 474.183 732.295Z" fill="#FFCADD"/>
<path d="M340.551 338.755C340.766 339.556 341.588 340.031 342.388 339.816L355.428 336.322C356.229 336.108 356.703 335.285 356.489 334.485C356.275 333.685 355.452 333.21 354.652 333.424L343.061 336.53L339.955 324.939C339.741 324.139 338.918 323.664 338.118 323.878C337.318 324.093 336.843 324.915 337.057 325.715L340.551 338.755ZM373.822 280.25L340.701 337.617L343.299 339.117L376.42 281.75L373.822 280.25Z" fill="black"/>
<path d="M419.733 339.816C420.533 340.031 421.355 339.556 421.57 338.755L425.064 325.715C425.278 324.915 424.803 324.093 424.003 323.878C423.203 323.664 422.381 324.139 422.166 324.939L419.06 336.53L407.469 333.424C406.669 333.21 405.847 333.685 405.632 334.485C405.418 335.285 405.893 336.108 406.693 336.322L419.733 339.816ZM385.701 281.75L418.822 339.117L421.42 337.617L388.299 280.25L385.701 281.75Z" fill="black"/>
<path d="M240.551 570.755C240.766 571.556 241.588 572.031 242.388 571.816L255.428 568.322C256.229 568.108 256.703 567.285 256.489 566.485C256.275 565.685 255.452 565.21 254.652 565.424L243.061 568.53L239.955 556.939C239.741 556.139 238.918 555.664 238.118 555.878C237.318 556.093 236.843 556.915 237.057 557.715L240.551 570.755ZM273.822 512.25L240.701 569.617L243.299 571.117L276.42 513.75L273.822 512.25Z" fill="black"/>
<path d="M319.733 571.816C320.533 572.031 321.355 571.556 321.57 570.755L325.064 557.715C325.278 556.915 324.803 556.093 324.003 555.878C323.203 555.664 322.381 556.139 322.166 556.939L319.06 568.53L307.469 565.424C306.669 565.21 305.847 565.685 305.632 566.485C305.418 567.285 305.893 568.108 306.693 568.322L319.733 571.816ZM285.701 513.75L318.822 571.117L321.42 569.617L288.299 512.25L285.701 513.75Z" fill="black"/>
<path d="M285.551 689.755C285.766 690.556 286.588 691.031 287.388 690.816L300.428 687.322C301.229 687.108 301.703 686.285 301.489 685.485C301.275 684.685 300.452 684.21 299.652 684.424L288.061 687.53L284.955 675.939C284.741 675.139 283.918 674.664 283.118 674.878C282.318 675.093 281.843 675.915 282.057 676.715L285.551 689.755ZM318.822 631.25L285.701 688.617L288.299 690.117L321.42 632.75L318.822 631.25Z" fill="black"/>
<path d="M364.733 690.816C365.533 691.031 366.355 690.556 366.57 689.755L370.064 676.715C370.278 675.915 369.803 675.093 369.003 674.878C368.203 674.664 367.381 675.139 367.166 675.939L364.06 687.53L352.469 684.424C351.669 684.21 350.847 684.685 350.632 685.485C350.418 686.285 350.893 687.108 351.693 687.322L364.733 690.816ZM330.701 632.75L363.822 690.117L366.42 688.617L333.299 631.25L330.701 632.75Z" fill="black"/>
<path d="M279.551 451.755C279.766 452.556 280.588 453.031 281.388 452.816L294.428 449.322C295.229 449.108 295.703 448.285 295.489 447.485C295.275 446.685 294.452 446.21 293.652 446.424L282.061 449.53L278.955 437.939C278.741 437.139 277.918 436.664 277.118 436.878C276.318 437.093 275.843 437.915 276.057 438.715L279.551 451.755ZM312.822 393.25L279.701 450.617L282.299 452.117L315.42 394.75L312.822 393.25Z" fill="black"/>
<path d="M358.733 452.816C359.533 453.031 360.355 452.556 360.57 451.755L364.064 438.715C364.278 437.915 363.803 437.093 363.003 436.878C362.203 436.664 361.381 437.139 361.166 437.939L358.06 449.53L346.469 446.424C345.669 446.21 344.847 446.685 344.632 447.485C344.418 448.285 344.893 449.108 345.693 449.322L358.733 452.816ZM324.701 394.75L357.822 452.117L360.42 450.617L327.299 393.25L324.701 394.75Z" fill="black"/>
<path d="M463.733 452.816C464.533 453.031 465.355 452.556 465.57 451.755L469.064 438.715C469.278 437.915 468.803 437.093 468.003 436.878C467.203 436.664 466.381 437.139 466.166 437.939L463.06 449.53L451.469 446.424C450.669 446.21 449.847 446.685 449.632 447.485C449.418 448.285 449.893 449.108 450.693 449.322L463.733 452.816ZM429.701 394.75L462.822 452.117L465.42 450.617L432.299 393.25L429.701 394.75Z" fill="black"/>
</svg>
